{"accessors":[{"name":"Ship_1_positions","componentType":5126,"count":9595,"min":[-136.28140258789062,-40.11330032348633,-288.6365966796875],"max":[131.97079467773438,407.0545959472656,310.6181945800781],"type":"VEC3","bufferView":0,"byteOffset":0},{"name":"Ship_1_normals","componentType":5126,"count":9595,"min":[-1,-1,-1],"max":[1,1,1],"type":"VEC3","bufferView":0,"byteOffset":159792},{"name":"Ship_1_texcoords","componentType":5126,"count":9595,"min":[-1.6797000169754028,-0.08240000158548355],"max":[1.0185999870300293,0.9955000281333923],"type":"VEC2","bufferView":1,"byteOffset":0},{"name":"Ship_1_0_indices","componentType":5123,"count":22296,"min":[0],"max":[9594],"type":"SCALAR","bufferView":2,"byteOffset":0},{"name":"Sails_1_positions","componentType":5126,"count":278,"min":[-132.22239685058594,103.39669799804688,-270.4377136230469],"max":[127.8114013671875,363.7421875,201.56910705566406],"type":"VEC3","bufferView":0,"byteOffset":115140},{"name":"Sails_1_normals","componentType":5126,"count":278,"min":[-0.9995999932289124,-0.36629998683929443,-0.3878999948501587],"max":[0.41690000891685486,0.7738999724388123,0.9998999834060669],"type":"VEC3","bufferView":0,"byteOffset":274932},{"name":"Sails_1_texcoords","componentType":5126,"count":278,"min":[0.000699999975040555,0.004800000227987766],"max":[0.9987000226974487,1],"type":"VEC2","bufferView":1,"byteOffset":76760},{"name":"Sails_1_0_indices","componentType":5123,"count":1284,"min":[0],"max":[277],"type":"SCALAR","bufferView":2,"byteOffset":44592},{"name":"Detail_1_positions","componentType":5126,"count":3311,"min":[-65.3926010131836,8.067999839782715,-204.03399658203125],"max":[55.5703010559082,154.52450561523438,203.70550537109375],"type":"VEC3","bufferView":0,"byteOffset":118476},{"name":"Detail_1_normals","componentType":5126,"count":3311,"min":[-1,-1,-1],"max":[1,1,1],"type":"VEC3","bufferView":0,"byteOffset":278268},{"name":"Detail_1_texcoords","componentType":5126,"count":3311,"min":[0.013399999588727951,0.00989999994635582],"max":[0.9848999977111816,0.9866999983787537],"type":"VEC2","bufferView":1,"byteOffset":78984},{"name":"Detail_1_0_indices","componentType":5123,"count":8382,"min":[0],"max":[3310],"type":"SCALAR","bufferView":2,"byteOffset":47160},{"name":"Flags_1_positions","componentType":5126,"count":132,"min":[-0.5533000230789185,237.56619262695312,-252.83709716796875],"max":[-0.4049000144004822,375.3501892089844,156.9927978515625],"type":"VEC3","bufferView":0,"byteOffset":158208},{"name":"Flags_1_normals","componentType":5126,"count":132,"min":[1,0,0],"max":[1,0,0],"type":"VEC3","bufferView":0,"byteOffset":318000},{"name":"Flags_1_texcoords","componentType":5126,"count":132,"min":[0.0835999995470047,0.025299999862909317],"max":[0.9197999835014343,0.9805999994277954],"type":"VEC2","bufferView":1,"byteOffset":105472},{"name":"Flags_1_0_indices","componentType":5123,"count":324,"min":[0],"max":[131],"type":"SCALAR","bufferView":2,"byteOffset":63924}],"asset":{"generator":"obj2gltf","version":"2.0"},"buffers":[{"name":"input","byteLength":490684,"uri":"data:application/octet-stream;base64,"}],"bufferViews":[{"name":"bufferView_0","buffer":0,"byteLength":319584,"byteOffset":0,"byteStride":12,"target":34962},{"name":"bufferView_1","buffer":0,"byteLength":106528,"byteOffset":319584,"byteStride":8,"target":34962},{"name":"bufferView_2","buffer":0,"byteLength":64572,"byteOffset":426112,"target":34963}],"materials":[{"name":"07___Default1","pbrMetallicRoughness":{"baseColorFactor":[0.5,0.5,0.5,1],"metallicFactor":0,"roughnessFactor":1},"emissiveFactor":[0,0,0],"alphaMode":"OPAQUE","doubleSided":false}],"meshes":[{"name":"Ship_1","primitives":[{"attributes":{"POSITION":0,"NORMAL":1,"TEXCOORD_0":2},"indices":3,"material":0,"mode":4}]},{"name":"Sails_1","primitives":[{"attributes":{"POSITION":4,"NORMAL":5,"TEXCOORD_0":6},"indices":7,"material":0,"mode":4}]},{"name":"Detail_1","primitives":[{"attributes":{"POSITION":8,"NORMAL":9,"TEXCOORD_0":10},"indices":11,"material":0,"mode":4}]},{"name":"Flags_1","primitives":[{"attributes":{"POSITION":12,"NORMAL":13,"TEXCOORD_0":14},"indices":15,"material":0,"mode":4}]}],"nodes":[{"name":"Ship","mesh":0},{"name":"Sails","mesh":1},{"name":"Detail","mesh":2},{"name":"Flags","mesh":3}],"scene":0,"scenes":[{"nodes":[0,1,2,3]}]}
